<svg width="1035" height="230" viewBox="0 0 1035 230" fill="none" xmlns="http://www.w3.org/2000/svg">
<g id="Logo Hor C" clip-path="url(#clip0_101_75)">
<g id="Imagen NL">
<path id="MIN KASPER" d="M390.664 70.7985V159.119H381.704V88.5906L350.216 159.119H343.688L312.2 88.8465V159.119H303.24V70.7985H312.712L346.888 147.343L381.064 70.7985H390.664ZM419.95 69.6465V159.119H410.99V69.6465H419.95ZM507.696 159.119H498.736L449.2 83.8546V159.119H440.24V69.6465H449.2L498.736 144.783V69.6465H507.696V159.119ZM611.139 159.119L578.627 119.311V159.119H560.707V69.7746H578.627V109.839L611.139 69.7746H632.771L595.907 114.063L633.795 159.119H611.139ZM700.366 142.095H664.782L658.894 159.119H640.078L672.206 69.6465H693.07L725.198 159.119H706.254L700.366 142.095ZM695.502 127.759L682.574 90.3826L669.646 127.759H695.502ZM768.055 160.015C761.826 160.015 756.194 158.948 751.159 156.815C746.21 154.681 742.284 151.609 739.383 147.599C736.482 143.588 734.988 138.852 734.903 133.391H754.103C754.359 137.06 755.639 139.961 757.943 142.095C760.332 144.228 763.575 145.295 767.671 145.295C771.852 145.295 775.138 144.313 777.527 142.351C779.916 140.303 781.111 137.657 781.111 134.415C781.111 131.769 780.3 129.593 778.679 127.887C777.058 126.18 775.01 124.857 772.535 123.919C770.146 122.895 766.818 121.785 762.551 120.591C756.748 118.884 752.012 117.22 748.343 115.599C744.759 113.892 741.644 111.375 738.999 108.047C736.439 104.633 735.159 100.111 735.159 94.4786C735.159 89.1879 736.482 84.5799 739.127 80.6545C741.772 76.7292 745.484 73.7425 750.263 71.6945C755.042 69.5612 760.503 68.4946 766.647 68.4946C775.863 68.4946 783.33 70.7559 789.047 75.2785C794.85 79.7159 798.05 85.9452 798.647 93.9666H778.935C778.764 90.8946 777.442 88.3772 774.967 86.4145C772.578 84.3666 769.378 83.3426 765.367 83.3426C761.868 83.3426 759.052 84.2386 756.919 86.0305C754.871 87.8225 753.847 90.4252 753.847 93.8385C753.847 96.2279 754.615 98.2332 756.151 99.8545C757.772 101.391 759.735 102.671 762.039 103.695C764.428 104.633 767.756 105.743 772.023 107.023C777.826 108.729 782.562 110.436 786.231 112.143C789.9 113.849 793.058 116.409 795.703 119.823C798.348 123.236 799.671 127.716 799.671 133.263C799.671 138.041 798.434 142.479 795.959 146.575C793.484 150.671 789.858 153.956 785.079 156.431C780.3 158.82 774.626 160.015 768.055 160.015ZM880.359 97.4225C880.359 102.201 879.207 106.681 876.903 110.863C874.684 115.044 871.143 118.415 866.279 120.975C861.5 123.535 855.442 124.815 848.103 124.815H833.127V159.119H815.207V69.7746H848.103C855.015 69.7746 860.903 70.9692 865.767 73.3586C870.631 75.7479 874.258 79.0332 876.647 83.2145C879.122 87.3959 880.359 92.1319 880.359 97.4225ZM847.335 110.351C852.284 110.351 855.954 109.241 858.343 107.023C860.732 104.719 861.927 101.519 861.927 97.4225C861.927 88.7185 857.063 84.3665 847.335 84.3665H833.127V110.351H847.335ZM911.002 84.2385V106.639H941.082V120.847H911.002V144.527H944.922V159.119H893.082V69.6465H944.922V84.2385H911.002ZM1007.29 159.119L987.575 124.303H979.127V159.119H961.207V69.7746H994.743C1001.66 69.7746 1007.54 71.0119 1012.41 73.4865C1017.27 75.8759 1020.9 79.1612 1023.29 83.3426C1025.76 87.4385 1027 92.0465 1027 97.1665C1027 103.055 1025.29 108.388 1021.88 113.167C1018.47 117.86 1013.39 121.103 1006.65 122.895L1028.02 159.119H1007.29ZM979.127 110.863H994.103C998.967 110.863 1002.59 109.711 1004.98 107.407C1007.37 105.017 1008.57 101.732 1008.57 97.5505C1008.57 93.4545 1007.37 90.2972 1004.98 88.0786C1002.59 85.7746 998.967 84.6226 994.103 84.6226H979.127V110.863Z" fill="#071D4F"/>
<g id="Imagen NL_2">
<g id="Libros NL">
<g id="1er libro NL">
<path id="hojas" d="M90.3082 202.042C88.6742 202.614 83.8829 204.126 79.723 205.449C73.3894 207.436 72.2242 207.859 70.8098 208.216C67.9899 209.121 65.4236 209.64 62.7912 210.279C56.1333 211.984 49.2897 213.47 48.6369 213.355C48.2379 213.285 45.2212 212.154 41.8972 210.858C31.0336 206.512 27.3393 204.612 26.5031 204.689C25.3703 204.751 24.1854 206.538 24.7488 207.797C25.3925 209.115 27.4073 210.322 38.7896 215.545L48.5738 220.075L53.9561 218.818C61.8748 216.961 91.1732 208.59 94.1213 207.352C94.2002 207.328 94.0252 206.624 93.7307 205.75C93.4254 204.724 93.3805 203.706 93.6385 202.667C93.8645 201.809 93.8708 201.137 93.6532 201.099C93.4719 201.067 91.9359 201.507 90.3082 202.042Z" fill="#FFFDFD" stroke="black" stroke-width="0.999999"/>
<path id="tapa" d="M70.9546 192.224C66.7419 193.503 28.0774 203.129 27.9551 203.108C24.9118 203.501 23.5439 204.975 23.7339 207.857C23.7341 207.864 23.7344 207.87 23.7347 207.877C23.738 207.882 23.7454 207.888 23.75 207.893C24.1768 208.907 24.7579 209.68 25.6275 210.173C33.1297 213.975 40.6765 217.83 48.3646 221.194C62.4647 218.736 79.6056 212.56 94.3633 208.457C94.7762 208.155 95.1088 207.929 95.1044 207.489C95.1013 207.169 94.7683 206.901 94.5832 206.816C94.4263 206.745 94.4382 206.734 94.1868 206.558L93.9608 206.448C93.9306 206.74 94.1114 207.22 94.092 207.282C94.0724 207.345 93.9994 207.372 93.9367 207.414C93.7449 207.541 93.4014 207.619 92.9582 207.768C78.3285 212.316 63.5457 216.445 48.5725 220.015C43.0843 217.37 37.7158 214.866 32.1311 212.442C29.587 211.159 27.165 210.061 25.0517 208.315C24.5694 206.478 25.0216 205.017 26.8728 204.822C33.0624 207.121 39.1627 209.894 45.2551 212.414C46.8789 213.141 47.9965 213.828 49.7772 214.219C63.0732 211.378 78.5083 205.718 92.604 202.441C94.9712 201.399 95.6454 200.129 92.4566 199.408C90.5407 199.068 72.5038 193 70.9545 192.224H70.9546Z" fill="#1A6C8C" stroke="black" stroke-width="0.999999"/>
</g>
<g id="2do libro NL">
<path id="path5116" d="M82.4925 193.808C80.0105 195.683 72.0016 201.732 70.4574 203.057C68.705 203.64 66.8759 202.402 43.2208 197.263C35.9134 195.669 29.7138 194.351 29.4815 194.369C28.7873 197.004 27.9558 199.94 27.7354 201.529L28.1891 202.218L37.8838 204.055C47.1081 206.123 56.2251 207.802 65.3116 210.435L68.6232 211.225L70.8552 209.732C72.1231 208.91 73.7658 207.801 74.5069 207.265C75.2836 206.737 78.1763 204.726 81.0065 202.813C83.801 200.89 86.6132 198.745 87.2558 197.994C89.3534 195.671 89.1724 191.982 86.9927 191.438C86.6353 191.349 84.6263 192.405 82.4925 193.808Z" fill="white" stroke="black"/>
<path id="path179" fill-rule="evenodd" clip-rule="evenodd" d="M83.5779 189.606C85.1262 189.992 86.883 190.051 88.2232 190.765C89.5189 191.657 89.6535 192.64 89.8327 193.443C89.7 195.498 88.9868 197.597 87.6034 199.34C82.6398 202.423 77.8784 205.791 73.3187 209.442C72.0523 210.256 70.8172 211.149 69.6136 212.124C68.0251 211.917 66.4619 211.591 64.9237 211.144C54.5113 208.477 43.8509 206.072 33.3 204.019C31.4367 203.552 26.8722 202.831 26.2466 202.295C26.4698 202.161 27.4143 201.598 27.8161 201.509C27.6825 202.045 30.0853 202.405 30.6195 202.591C43.4203 205.058 56.1203 207.908 68.7198 211.142C74.3422 207.054 80.1155 202.927 85.9509 199.117C87.4889 197.784 88.1875 196.25 88.4934 194.248C88.2303 192.394 87.5896 191.665 85.857 191.883C80.3341 195.552 76.467 199.692 71.2166 203.712C57.4488 200.548 41.9935 197.03 28.1579 194.197C27.9197 194.137 27.7857 194.167 27.8451 193.929C28.3212 193.542 29.0198 193.165 29.4959 192.777C36.1621 188.961 43.4291 186.357 50.1056 182.548C56.3815 184.092 75.8519 187.819 83.5779 189.606Z" fill="#3CADDB" stroke="black"/>
</g>
<g id="3er libro NL">
<path id="path5112" d="M70.8483 177.157C57.4822 175.282 56.7813 175.221 53.421 176.109C49.3177 177.152 36.2569 181.45 34.8385 182.189C33.7153 182.759 33.594 182.998 33.146 185.312C32.74 187.409 32.8029 188.247 33.4909 190.893L34.2068 193.456C34.2746 193.662 34.6703 194.049 34.9349 194.082L37.5064 194.371C47.3723 195.531 60.659 196.858 62.7157 196.98C63.9408 197.046 65.1655 197.174 65.841 197.23C66.5641 196.971 69.9559 195.633 71.4319 195C76.163 192.745 81.8605 192.125 86.3042 189.263C86.4837 189.148 86.3257 188.676 86.277 188.655C86.0386 188.553 84.5954 187.826 84.1598 187.788C82.9116 186.499 82.566 185.802 82.6606 182.407C82.7074 180.616 82.8276 180.189 83.3104 180.02C84.5141 179.615 83.9695 179.135 81.9739 178.786C80.8099 178.598 75.8145 177.856 70.8483 177.157Z" fill="#65CDE7" stroke="black"/>
<path id="path27506" d="M84.8096 188.575C84.3793 188.054 83.9352 187.731 83.7004 187.097C83.4928 186.536 83.2832 185.768 83.1012 185.092C82.9192 184.415 82.9151 183.87 82.8327 183.244C82.7503 182.618 82.8336 182.026 82.8416 181.417C82.8497 180.809 83.0283 180.55 83.0771 180.216C83.1259 179.881 82.042 180.559 82.042 180.559L64.8644 186.939L36.7554 183.695C36.7554 183.695 36.2892 183.617 36.0461 183.649C35.9538 183.662 35.3255 183.852 35.0935 184.179C34.7883 184.609 34.8174 185.08 34.716 185.51C34.534 186.281 34.4363 186.72 34.3695 187.33C34.2987 187.976 34.4671 188.734 34.6081 189.428C34.756 190.155 34.8502 190.686 35.0439 191.294C35.2454 191.926 35.3318 192.069 35.4754 192.456C35.6189 192.843 35.992 192.857 36.2728 192.938C36.5708 193.025 38.0981 193.198 38.0981 193.198L65.1089 195.849L84.8096 188.575Z" fill="white" stroke="black"/>
</g>
</g>
<g id="Ave">
<path id="Vector" fill-rule="evenodd" clip-rule="evenodd" d="M240.883 4.64415C230.617 22.513 217.079 38.498 201.132 51.552C189.84 60.7959 177.416 68.5385 164.907 75.9842C164.298 76.3468 163.688 76.7088 163.079 77.0707L163.066 77.0784L163.053 77.0862C155.058 81.8347 147.074 86.5767 139.995 92.5169C132.213 99.0463 125.614 106.981 120.611 115.822L119.741 115.33C124.802 106.385 131.479 98.3572 139.352 91.7508C146.496 85.7559 154.548 80.9741 162.529 76.2343C163.152 75.8644 163.774 75.4948 164.396 75.1249C176.899 67.6827 189.268 59.9718 200.499 50.7782C217.576 36.7996 231.874 19.4393 242.321 0L243.24 0.379898C237.967 18.02 231.117 35.1882 222.798 51.6131C214.958 67.093 205.537 82.2603 192.082 93.348C179.89 103.395 164.935 109.601 149.655 113.408C146.216 114.265 142.752 115.007 139.277 115.688C134.877 116.756 130.435 117.669 125.947 118.097C124.286 118.359 122.575 118.54 120.871 118.366C120.627 118.375 120.384 118.39 120.141 118.416C120.321 118.393 120.501 118.369 120.681 118.345C120.539 118.328 120.397 118.309 120.255 118.287C119.856 118.225 119.46 118.142 119.07 118.039L119.327 117.072C119.683 117.167 120.044 117.242 120.408 117.299C122.684 117.652 125.017 117.255 127.394 116.838C130.68 116.261 133.963 115.685 137.234 115.064C143.927 113.293 150.478 111.007 156.871 108.35C165.897 104.597 174.626 100.092 182.739 94.6399C195.879 85.8105 207.341 74.4974 216.362 61.489C218.305 58.0956 220.144 54.6392 221.906 51.1613C229.481 36.2052 235.834 20.6306 240.883 4.64415ZM120.141 118.416C120.041 118.429 119.94 118.442 119.84 118.455C119.852 118.452 119.865 118.451 119.878 118.449C119.891 118.448 119.904 118.446 119.917 118.444C119.992 118.433 120.066 118.424 120.141 118.416ZM64.8262 53.3516C63.5431 53.8447 62.2878 54.4091 61.0766 55.0416C58.6768 56.2936 56.4068 57.7942 54.3135 59.5103C62.6443 55.5657 72.8547 55.854 80.9454 60.2723C83.7335 61.7949 86.2674 63.7698 88.4809 66.0485C92.3947 70.0774 95.2614 74.9836 98.0954 79.8338L98.1229 79.8808C101.426 85.5339 104.84 91.2954 109.85 95.5106C110.739 96.259 111.673 96.953 112.621 97.6254C115.876 99.9339 119.302 101.993 122.726 104.051C123.371 104.439 124.016 104.826 124.66 105.216C125.795 103.823 126.966 102.461 128.179 101.136C124.971 99.4397 121.71 97.8448 118.419 96.349C118.262 96.2776 118.105 96.2063 117.947 96.135C115.914 95.214 113.87 94.2879 112.057 92.9902C108.171 90.2093 105.625 85.915 103.839 81.4829C102.987 79.3667 102.28 77.1876 101.573 75.0103V75.0102C100.345 71.2237 99.1178 67.4429 97.1313 64.0083C93.8671 58.3644 88.4974 53.8715 82.2192 52.1129C76.5179 50.516 70.3895 51.2226 64.8263 53.3518L64.8262 53.3516ZM15.5451 65.9615C10.4531 64.6206 5.25009 63.705 0 63.2482L7.54508 64.3212C9.06985 64.6337 10.5947 64.9461 12.1195 65.2583L12.2372 65.2824L12.251 65.2852C13.3488 65.51 14.447 65.7349 15.5451 65.9615ZM15.5451 65.9615C34.7467 71.018 52.3705 82.1219 64.9932 97.4706C72.5668 106.68 78.3028 117.182 84.0385 127.684H84.0386V127.685C89.8075 138.247 95.5762 148.81 103.214 158.055C114.35 171.535 129.532 181.909 146.53 186.002C159.635 189.158 173.312 188.548 186.67 186.349C189.615 191.023 192.566 195.692 195.517 200.362L195.519 200.365L195.521 200.369L195.523 200.372L195.525 200.375L195.527 200.379L195.529 200.382C200.217 207.8 204.905 215.219 209.566 222.653C210.64 224.366 211.711 226.082 212.781 227.798L212.796 227.822L213.545 229.022C205.855 216.094 199.029 202.652 193.139 188.811C192.663 187.692 192.192 186.569 191.725 185.442C192.666 185.26 193.606 185.071 194.543 184.877C198.061 184.146 201.562 183.334 205.042 182.442C200.406 183.076 195.749 183.557 191.082 183.885C189.983 181.212 188.902 178.524 187.821 175.834L187.82 175.833V175.832L187.819 175.831V175.83C182.124 161.665 176.406 147.445 167.929 135.011L168.128 134.972C168.44 134.911 168.754 134.85 169.067 134.786C172.887 134.007 176.752 133.1 180.363 131.493C181.156 131.14 181.933 130.756 182.7 130.376L182.924 130.266C192.111 125.727 201.566 121.729 211.222 118.3L211.069 117.329C209.337 117.28 207.605 117.206 205.874 117.108C203.357 116.966 200.83 116.77 198.297 116.575C191.337 116.037 184.331 115.496 177.353 116.031C173.919 116.295 170.512 116.817 167.144 117.491C163.39 118.242 159.676 119.188 156.017 120.313L155.629 120.433C153.614 118.502 151.514 116.66 149.344 114.902C149.19 114.941 149.037 114.982 148.884 115.022C148.506 115.121 148.128 115.22 147.749 115.314C145.376 115.906 142.99 116.442 140.598 116.948C149.238 125.36 155.64 135.965 161.922 146.371L162.523 147.365C169.991 159.729 177.631 171.986 185.324 184.211C181.599 184.372 177.87 184.434 174.142 184.399C165.443 184.317 156.714 183.696 148.221 181.812C126.695 177.037 106.883 163.582 95.9994 144.406C92.1318 137.592 89.4097 130.191 87.0242 122.728C86.6567 121.578 86.2958 120.424 85.9346 119.268L85.9341 119.267L85.9336 119.265L85.9331 119.264L85.9326 119.262L85.9321 119.261L85.9316 119.259C83.6834 112.068 81.4227 104.837 77.4908 98.4354C69.7079 85.7647 56.1211 77.6634 42.0763 72.7786C33.4452 69.7766 24.5 67.8098 15.5451 65.9615ZM68.949 71.3609C71.1541 70.5504 72.3065 68.1654 71.523 66.0338C70.7395 63.9022 68.3168 62.8313 66.1117 63.6418C63.9066 64.4523 62.7542 66.8373 63.5377 68.9689C64.3212 71.1005 66.7439 72.1714 68.949 71.3609ZM67.0293 66.2529C66.932 66.7193 66.9733 67.2148 67.1475 67.6582C67.274 67.9791 67.4735 68.278 67.7541 68.479C67.8944 68.5795 68.0533 68.6546 68.2217 68.6922C68.3902 68.7297 68.569 68.7299 68.7357 68.6859C68.9713 68.6251 69.1779 68.4759 69.3329 68.2885C69.488 68.101 69.5924 67.8744 69.6601 67.6407C69.836 67.0332 69.7555 66.3439 69.3951 65.8242C69.179 65.5127 68.8681 65.2681 68.5149 65.1308C67.6332 64.8543 67.399 65.3985 67.1292 66.0252C67.0969 66.1004 67.064 66.1768 67.0294 66.2531L67.0293 66.2529ZM157.114 121.025C160.481 120.016 163.894 119.161 167.34 118.471C170.679 117.804 174.045 117.288 177.429 117.028C184.324 116.499 191.216 117.031 198.151 117.567H198.152C200.701 117.764 203.255 117.961 205.818 118.107C206.695 118.156 207.572 118.2 208.45 118.237C204.673 119.621 200.927 121.091 197.217 122.647C197.056 122.696 196.895 122.745 196.734 122.793C194.657 123.423 192.578 124.052 190.581 124.901C188.904 125.613 187.298 126.475 185.692 127.337C184.543 127.953 183.394 128.57 182.218 129.132C177.549 131.365 172.466 132.725 167.307 133.127C165.702 130.851 164.002 128.634 162.183 126.494C160.569 124.594 158.874 122.774 157.114 121.025Z" fill="#293E6B"/>
<path id="Vector_2" d="M201.132 51.5521L201.026 51.4226L201.132 51.5521ZM240.883 4.6443L241.043 4.69474L240.738 4.56088L240.883 4.6443ZM164.907 75.9843L164.821 75.8404L164.907 75.9843ZM163.079 77.0708L162.994 76.9269L163.079 77.0708ZM163.066 77.0785L162.981 76.9345L162.98 76.9346L163.066 77.0785ZM163.053 77.0863L163.139 77.2302L163.053 77.0863ZM139.995 92.517L139.887 92.3887L139.995 92.517ZM120.611 115.822L120.529 115.968L120.675 116.05L120.757 115.905L120.611 115.822ZM119.741 115.33L119.595 115.247L119.513 115.393L119.659 115.476L119.741 115.33ZM139.352 91.7509L139.244 91.6226L139.352 91.7509ZM162.529 76.2344L162.615 76.3784L162.529 76.2344ZM164.396 75.125L164.481 75.2689L164.396 75.125ZM200.499 50.7783L200.393 50.6488L200.499 50.7783ZM242.321 0.000148654L242.385 -0.154626L242.245 -0.212402L242.173 -0.0791262L242.321 0.000148654ZM243.24 0.380047L243.401 0.428011L243.444 0.283047L243.304 0.225271L243.24 0.380047ZM222.798 51.6132L222.947 51.6889L222.798 51.6132ZM192.082 93.3481L192.188 93.4774L192.082 93.3481ZM149.655 113.408L149.695 113.571L149.655 113.408ZM139.277 115.688L139.245 115.523L139.238 115.525L139.277 115.688ZM125.947 118.097L125.931 117.93L125.921 117.932L125.947 118.097ZM120.871 118.366L120.888 118.2L120.877 118.198L120.865 118.199L120.871 118.366ZM120.681 118.345L120.703 118.511L120.7 118.179L120.681 118.345ZM120.255 118.287L120.281 118.122L120.255 118.287ZM119.07 118.039L118.908 117.996L118.865 118.158L119.027 118.201L119.07 118.039ZM119.327 117.072L119.37 116.91L119.208 116.867L119.165 117.029L119.327 117.072ZM120.408 117.299L120.434 117.133L120.408 117.299ZM127.394 116.838L127.365 116.673L127.394 116.838ZM137.234 115.064L137.266 115.228L137.277 115.225L137.234 115.064ZM156.871 108.35L156.807 108.195L156.871 108.35ZM182.739 94.64L182.645 94.501L182.739 94.64ZM216.362 61.4891L216.499 61.5846L216.503 61.5786L216.507 61.5724L216.362 61.4891ZM221.906 51.1614L221.756 51.0858L221.906 51.1614ZM119.84 118.455L119.807 118.29L119.861 118.621L119.84 118.455ZM119.878 118.449L119.859 118.283L119.878 118.449ZM119.917 118.444L119.894 118.277L119.885 118.279L119.917 118.444ZM61.0765 55.0417L61.154 55.1903L61.0765 55.0417ZM64.8261 53.3517L64.9866 53.3039L64.935 53.1304L64.766 53.1954L64.8261 53.3517ZM54.3134 59.5104L54.2072 59.3809L54.3851 59.6617L54.3134 59.5104ZM80.9453 60.2724L81.0256 60.1255L80.9453 60.2724ZM88.4808 66.0486L88.3606 66.1652L88.4808 66.0486ZM98.0953 79.8339L97.9507 79.9184L98.0953 79.8339ZM98.1228 79.8809L98.2674 79.7964L98.1228 79.8809ZM109.85 95.5107L109.742 95.6389L109.85 95.5107ZM112.621 97.6255L112.524 97.7621L112.621 97.6255ZM122.726 104.051L122.64 104.194L122.726 104.051ZM124.66 105.216L124.574 105.359L124.698 105.434L124.79 105.321L124.66 105.216ZM128.179 101.136L128.303 101.249L128.449 101.089L128.257 100.988L128.179 101.136ZM118.419 96.3491L118.488 96.1966L118.419 96.3491ZM117.947 96.1351L118.016 95.9826L117.947 96.1351ZM112.057 92.9903L111.959 93.1265L112.057 92.9903ZM103.839 81.483L103.995 81.4204L103.839 81.483ZM101.573 75.0104L101.41 75.0511L101.414 75.0621L101.573 75.0104ZM101.573 75.0103L101.736 74.9696L101.733 74.9586L101.573 75.0103ZM97.1312 64.0084L96.9862 64.0922L97.1312 64.0084ZM82.2191 52.113L82.1739 52.2743L82.2191 52.113ZM64.8262 53.3519L64.6657 53.3997L64.7173 53.5728L64.886 53.5084L64.8262 53.3519ZM-0.000103241 63.2483L0.0144112 63.0816L-0.0236816 63.4142L-0.000103241 63.2483ZM7.54498 64.3213L7.57867 64.1569L7.56856 64.1555L7.54498 64.3213ZM12.1194 65.2584L12.153 65.0944L12.1194 65.2584ZM12.2371 65.2825L12.2035 65.4466H12.2036L12.2371 65.2825ZM12.2509 65.2853L12.2845 65.1213H12.2844L12.2509 65.2853ZM64.9931 97.4707L65.1224 97.3643L64.9931 97.4707ZM84.0384 127.684L83.8913 127.765L83.8948 127.771L84.0384 127.684ZM84.0385 127.685L84.1856 127.604L84.1821 127.598L84.0385 127.685ZM103.214 158.055L103.085 158.162L103.214 158.055ZM146.53 186.002L146.569 185.839L146.53 186.002ZM186.67 186.349L186.812 186.26L186.753 186.166L186.643 186.184L186.67 186.349ZM195.517 200.362L195.658 200.273L195.517 200.362ZM195.529 200.382L195.388 200.471V200.472L195.529 200.382ZM209.566 222.653L209.708 222.564L209.566 222.653ZM212.781 227.798L212.923 227.709L212.781 227.798ZM212.796 227.822L212.654 227.911L212.796 227.822ZM213.545 229.022L213.403 229.111L213.689 228.937L213.545 229.022ZM193.139 188.811L193.293 188.745L193.139 188.811ZM191.725 185.442L191.693 185.278L191.491 185.317L191.57 185.506L191.725 185.442ZM194.543 184.877L194.509 184.713L194.543 184.877ZM205.042 182.442L205.084 182.604L205.019 182.276L205.042 182.442ZM191.082 183.885L190.927 183.949L190.973 184.061L191.093 184.052L191.082 183.885ZM187.821 175.834L187.665 175.897L187.821 175.834ZM187.819 175.83L187.657 175.871L187.66 175.882L187.664 175.893L187.819 175.83ZM187.819 175.83L187.982 175.79L187.979 175.778L187.975 175.768L187.819 175.83ZM167.929 135.011L167.897 134.847L167.648 134.895L167.791 135.105L167.929 135.011ZM168.128 134.972L168.096 134.808L168.128 134.972ZM169.067 134.786L169.033 134.622L169.067 134.786ZM180.363 131.493L180.297 131.34H180.295L180.363 131.493ZM180.363 131.493L180.429 131.647L180.431 131.646L180.363 131.493ZM182.7 130.376L182.626 130.226L182.7 130.376ZM182.924 130.266L182.85 130.115L182.924 130.266ZM211.222 118.3L211.278 118.458L211.409 118.412L211.388 118.274L211.222 118.3ZM211.069 117.329L211.235 117.303L211.213 117.166L211.074 117.162L211.069 117.329ZM205.874 117.108L205.865 117.275L205.874 117.108ZM198.297 116.575L198.31 116.408L198.297 116.575ZM177.353 116.031L177.34 115.864L177.353 116.031ZM167.144 117.491L167.177 117.655L167.144 117.491ZM156.017 120.313L155.968 120.153L156.017 120.313ZM155.629 120.433L155.513 120.554L155.584 120.622L155.678 120.593L155.629 120.433ZM149.344 114.902L149.449 114.771L149.384 114.718L149.302 114.74L149.344 114.902ZM148.884 115.022L148.926 115.184L148.884 115.022ZM147.749 115.314L147.789 115.477L147.749 115.314ZM140.598 116.948L140.563 116.784L140.256 116.849L140.481 117.068L140.598 116.948ZM161.922 146.371L161.779 146.458L161.922 146.371ZM162.523 147.365L162.379 147.452L162.523 147.365ZM185.324 184.211L185.331 184.378L185.62 184.366L185.466 184.122L185.324 184.211ZM174.142 184.399L174.14 184.567L174.142 184.399ZM148.221 181.812L148.185 181.976L148.221 181.812ZM95.9993 144.406L95.8536 144.489L95.9993 144.406ZM87.0241 122.728L87.1836 122.677L87.0241 122.728ZM85.9345 119.268L86.0943 119.219L86.0941 119.218L85.9345 119.268ZM85.9315 119.259L85.7716 119.309L85.7719 119.31L85.9315 119.259ZM77.4907 98.4355L77.348 98.5231L77.4907 98.4355ZM42.0762 72.7787L42.0211 72.9368L42.0762 72.7787ZM71.5229 66.0339L71.6801 65.9761L71.5229 66.0339ZM68.9489 71.361L69.0067 71.5182L68.9489 71.361ZM66.1116 63.6419L66.0538 63.4847L66.1116 63.6419ZM63.5376 68.969L63.3804 69.0268L63.5376 68.969ZM67.1474 67.6583L66.9915 67.7196L66.9916 67.7198L67.1474 67.6583ZM67.0292 66.253L67.1864 66.1954L66.9848 65.6456L66.8653 66.2188L67.0292 66.253ZM67.754 68.4791L67.6565 68.6153L67.754 68.4791ZM68.2216 68.6923L68.1852 68.8557L68.2216 68.6923ZM68.7356 68.686L68.6938 68.5238L68.6928 68.5241L68.7356 68.686ZM69.3328 68.2886L69.2038 68.1818L69.3328 68.2886ZM69.66 67.6408L69.8209 67.6874L69.66 67.6408ZM69.395 65.8243L69.5326 65.7289L69.395 65.8243ZM68.5148 65.1309L68.5756 64.9744L68.5649 64.9711L68.5148 65.1309ZM67.1291 66.0253L67.283 66.0915L67.1291 66.0253ZM67.0293 66.2532L66.8721 66.3109L67.0129 66.6951L67.1818 66.3224L67.0293 66.2532ZM167.34 118.471L167.373 118.636L167.34 118.471ZM157.114 121.025L157.066 120.865L156.796 120.946L156.996 121.144L157.114 121.025ZM177.429 117.028L177.416 116.861L177.429 117.028ZM198.151 117.567L198.165 117.4H198.164L198.151 117.567ZM198.152 117.567L198.138 117.734H198.139L198.152 117.567ZM205.818 118.107L205.808 118.274L205.818 118.107ZM208.45 118.237L208.508 118.394L208.457 118.07L208.45 118.237ZM197.217 122.647L197.266 122.807L197.274 122.805L197.282 122.801L197.217 122.647ZM196.734 122.793L196.783 122.954L196.734 122.793ZM190.581 124.901L190.647 125.055L190.581 124.901ZM185.692 127.337L185.613 127.189L185.692 127.337ZM182.218 129.132L182.146 128.981L182.218 129.132ZM167.307 133.127L167.17 133.224L167.225 133.302L167.32 133.294L167.307 133.127ZM162.183 126.494L162.311 126.385L162.183 126.494ZM201.238 51.6817C217.201 38.6148 230.752 22.6143 241.028 4.72773L240.738 4.56088C230.482 22.4121 216.958 38.3815 201.026 51.4226L201.238 51.6817ZM164.993 76.1282C177.503 68.6819 189.935 60.934 201.238 51.6817L201.026 51.4226C189.744 60.6581 177.329 68.3952 164.821 75.8404L164.993 76.1282ZM163.165 77.2148C163.774 76.8529 164.384 76.4909 164.993 76.1282L164.821 75.8404C164.212 76.203 163.603 76.5649 162.994 76.9269L163.165 77.2148ZM163.152 77.2225L163.165 77.2148L162.994 76.9269L162.981 76.9345L163.152 77.2225ZM163.139 77.2302L163.152 77.2224L162.98 76.9346L162.967 76.9423L163.139 77.2302ZM140.102 92.6452C147.17 86.7153 155.142 81.98 163.139 77.2302L162.968 76.9423C154.975 81.6896 146.979 86.4383 139.887 92.3887L140.102 92.6452ZM120.757 115.905C125.75 107.081 132.336 99.1619 140.102 92.6452L139.887 92.3887C132.09 98.931 125.478 106.881 120.466 115.74L120.757 115.905ZM119.659 115.476L120.529 115.968L120.694 115.676L119.824 115.184L119.659 115.476ZM139.244 91.6226C131.356 98.2418 124.666 106.285 119.595 115.247L119.887 115.412C124.938 106.484 131.602 98.4727 139.46 91.8792L139.244 91.6226ZM162.444 76.0904C154.465 80.829 146.401 85.6175 139.244 91.6226L139.46 91.8792C146.592 85.8945 154.632 81.1193 162.615 76.3784L162.444 76.0904ZM164.31 74.9811C163.689 75.3511 163.066 75.7205 162.444 76.0904L162.615 76.3784C163.237 76.0085 163.86 75.6389 164.481 75.2689L164.31 74.9811ZM200.393 50.6488C189.172 59.834 176.812 67.5396 164.31 74.9811L164.481 75.2689C176.985 67.8261 189.363 60.1099 200.605 50.9079L200.393 50.6488ZM242.173 -0.0791262C231.737 19.3408 217.452 36.6841 200.393 50.6488L200.605 50.9079C217.699 36.9154 232.011 19.538 242.468 0.0794235L242.173 -0.0791262ZM243.304 0.225271L242.385 -0.154626L242.257 0.154924L243.176 0.534822L243.304 0.225271ZM222.947 51.6889C231.271 35.2551 238.124 18.0776 243.401 0.428011L243.08 0.332082C237.809 17.9625 230.963 35.1216 222.648 51.5376L222.947 51.6889ZM192.188 93.4774C205.671 82.3674 215.104 67.1753 222.947 51.6889L222.648 51.5376C214.812 67.011 205.404 82.1535 191.975 93.2189L192.188 93.4774ZM149.695 113.571C164.99 109.76 179.971 103.545 192.188 93.4774L191.975 93.2189C179.809 103.245 164.879 109.443 149.614 113.246L149.695 113.571ZM139.31 115.852C142.786 115.171 146.253 114.429 149.695 113.571L149.614 113.246C146.179 114.102 142.718 114.843 139.245 115.524L139.31 115.852ZM125.963 118.264C130.462 117.835 134.913 116.919 139.317 115.851L139.238 115.525C134.84 116.592 130.408 117.504 125.931 117.931L125.963 118.264ZM120.854 118.533C122.58 118.709 124.308 118.525 125.973 118.263L125.921 117.932C124.264 118.193 122.57 118.371 120.888 118.2L120.854 118.533ZM120.159 118.583C120.396 118.557 120.636 118.543 120.878 118.533L120.865 118.199C120.618 118.208 120.371 118.223 120.123 118.25L120.159 118.583ZM120.658 118.179C120.479 118.203 120.299 118.227 120.12 118.25L120.162 118.582C120.343 118.559 120.523 118.535 120.703 118.511L120.658 118.179ZM120.229 118.453C120.373 118.475 120.517 118.494 120.661 118.511L120.7 118.179C120.56 118.162 120.42 118.143 120.281 118.122L120.229 118.453ZM119.027 118.201C119.423 118.306 119.825 118.39 120.229 118.453L120.281 118.122C119.887 118.061 119.498 117.979 119.113 117.877L119.027 118.201ZM119.165 117.029L118.908 117.996L119.232 118.082L119.489 117.115L119.165 117.029ZM120.434 117.133C120.075 117.078 119.72 117.003 119.37 116.91L119.284 117.234C119.646 117.33 120.012 117.407 120.383 117.464L120.434 117.133ZM127.365 116.673C124.983 117.091 122.678 117.482 120.434 117.133L120.383 117.464C122.69 117.822 125.05 117.419 127.422 117.003L127.365 116.673ZM137.203 114.899C133.933 115.52 130.651 116.096 127.365 116.673L127.422 117.003C130.708 116.426 133.993 115.85 137.266 115.228L137.203 114.899ZM156.807 108.195C150.42 110.85 143.875 113.133 137.192 114.902L137.277 115.225C143.978 113.452 150.537 111.164 156.935 108.504L156.807 108.195ZM182.645 94.501C174.543 99.9456 165.824 104.446 156.807 108.195L156.935 108.504C165.969 104.749 174.708 100.238 182.832 94.779L182.645 94.501ZM216.224 61.3937C207.215 74.385 195.768 85.6833 182.645 94.501L182.832 94.779C195.99 85.9379 207.467 74.61 216.499 61.5846L216.224 61.3937ZM221.756 51.0858C219.996 54.5616 218.158 58.0155 216.216 61.4059L216.507 61.5724C218.453 58.176 220.293 54.7169 222.055 51.2371L221.756 51.0858ZM240.724 4.59386C235.677 20.5716 229.327 36.1377 221.756 51.0858L222.055 51.2371C229.634 36.2729 235.991 20.6898 241.043 4.69474L240.724 4.59386ZM119.861 118.621C119.961 118.608 120.062 118.595 120.162 118.582L120.12 118.25C120.019 118.263 119.919 118.276 119.819 118.289L119.861 118.621ZM119.859 118.283C119.847 118.284 119.827 118.286 119.807 118.29L119.872 118.619C119.878 118.618 119.884 118.617 119.898 118.615L119.859 118.283ZM119.885 118.279C119.879 118.28 119.873 118.281 119.859 118.283L119.898 118.615C119.91 118.614 119.93 118.612 119.95 118.608L119.885 118.279ZM120.123 118.25C120.047 118.258 119.97 118.267 119.894 118.278L119.94 118.609C120.013 118.599 120.086 118.59 120.159 118.583L120.123 118.25ZM61.154 55.1903C62.3593 54.5607 63.6088 53.9989 64.8862 53.508L64.766 53.1954C63.4771 53.6908 62.216 54.2577 60.999 54.8933L61.154 55.1903ZM54.4196 59.6399C56.504 57.9311 58.7644 56.437 61.154 55.1903L60.999 54.8932C58.589 56.1507 56.3094 57.6575 54.2072 59.3809L54.4196 59.6399ZM81.0256 60.1255C72.8877 55.6814 62.6209 55.3916 54.2418 59.359L54.3851 59.6617C62.6675 55.7401 72.8214 56.0268 80.865 60.4194L81.0256 60.1255ZM88.6009 65.9319C86.3767 63.6422 83.8296 61.6567 81.0256 60.1255L80.865 60.4194C83.6372 61.9333 86.1578 63.8976 88.3606 66.1652L88.6009 65.9319ZM98.2399 79.7494C95.4077 74.9024 92.5313 69.9779 88.6009 65.9319L88.3606 66.1652C92.2578 70.1771 95.1149 75.0651 97.9507 79.9184L98.2399 79.7494ZM98.2674 79.7964L98.2399 79.7494L97.9507 79.9184L97.9782 79.9654L98.2674 79.7964ZM109.958 95.3826C104.973 91.189 101.573 85.4534 98.2674 79.7964L97.9782 79.9654C101.279 85.6146 104.706 91.402 109.742 95.6389L109.958 95.3826ZM112.718 97.4889C111.772 96.8177 110.842 96.1267 109.958 95.3826L109.742 95.6389C110.636 96.3914 111.574 97.0884 112.524 97.7621L112.718 97.4889ZM122.812 103.907C119.387 101.849 115.967 99.7931 112.718 97.4889L112.524 97.7621C115.785 100.075 119.216 102.137 122.64 104.194L122.812 103.907ZM124.747 105.072C124.103 104.683 123.457 104.295 122.812 103.907L122.64 104.194C123.285 104.582 123.93 104.97 124.574 105.359L124.747 105.072ZM128.056 101.023C126.84 102.35 125.667 103.715 124.53 105.11L124.79 105.321C125.923 103.931 127.092 102.571 128.303 101.249L128.056 101.023ZM118.35 96.5015C121.638 97.9961 124.896 99.5894 128.101 101.284L128.257 100.988C125.046 99.2901 121.783 97.6938 118.488 96.1966L118.35 96.5015ZM117.878 96.2877C118.036 96.359 118.193 96.4303 118.35 96.5015L118.488 96.1966C118.331 96.1252 118.174 96.0539 118.016 95.9826L117.878 96.2877ZM111.959 93.1265C113.788 94.4353 115.848 95.3678 117.878 96.2877L118.016 95.9826C115.981 95.0604 113.952 94.1406 112.154 92.8541L111.959 93.1265ZM103.684 81.5456C105.474 85.9908 108.037 90.3189 111.959 93.1265L112.154 92.8541C108.306 90.0999 105.775 85.8394 103.995 81.4204L103.684 81.5456ZM101.414 75.0621C102.12 77.2384 102.829 79.4231 103.684 81.5456L103.995 81.4204C103.145 79.3105 102.439 77.1369 101.733 74.9587L101.414 75.0621ZM101.411 75.0509V75.051L101.736 74.9698V74.9697L101.411 75.0509ZM96.9862 64.0922C98.9624 67.5089 100.184 71.2726 101.414 75.062L101.733 74.9586C100.505 71.1751 99.273 67.377 97.2762 63.9245L96.9862 64.0922ZM82.1739 52.2743C88.4055 54.0198 93.7415 58.4819 96.9862 64.0922L97.2762 63.9245C93.9925 58.247 88.589 53.7233 82.2643 51.9518L82.1739 52.2743ZM64.886 53.5084C70.4241 51.3888 76.515 50.6893 82.1739 52.2743L82.2643 51.9518C76.5206 50.3429 70.3547 51.0567 64.7663 53.1955L64.886 53.5084ZM64.6656 53.3995L64.6657 53.3997L64.9867 53.3041L64.9866 53.3039L64.6656 53.3995ZM-0.0146176 63.4151C5.22575 63.871 10.4193 64.785 15.5024 66.1236L15.5876 65.7997C10.4866 64.4564 5.27423 63.5392 0.0144112 63.0816L-0.0146176 63.4151ZM7.56856 64.1555L0.0234752 63.0826L-0.0236816 63.4142L7.5214 64.4871L7.56856 64.1555ZM12.153 65.0944C10.6282 64.7822 9.10337 64.4698 7.5786 64.1572L7.51135 64.4854C9.03613 64.7979 10.561 65.1103 12.0858 65.4225L12.153 65.0944ZM12.2707 65.1185L12.153 65.0944L12.0858 65.4225L12.2035 65.4466L12.2707 65.1185ZM12.2844 65.1213L12.2706 65.1185L12.2036 65.4466L12.2174 65.4494L12.2844 65.1213ZM15.5788 65.7976C14.4806 65.5709 13.3823 65.3461 12.2845 65.1213L12.2173 65.4494C13.3151 65.6742 14.4132 65.899 15.5111 66.1256L15.5788 65.7976ZM15.5024 66.1236C34.6708 71.1714 52.264 82.2563 64.8637 97.5771L65.1224 97.3643C52.4768 81.9878 34.8223 70.8649 15.5876 65.7997L15.5024 66.1236ZM64.8637 97.5771C72.4256 106.772 78.1544 117.26 83.8914 127.765L84.1854 127.604C78.451 117.104 72.7078 106.588 65.1224 97.3643L64.8637 97.5771ZM83.8948 127.771H83.8949L84.1821 127.598H84.182L83.8948 127.771ZM83.8949 127.771L84.1821 127.598L83.8949 127.771ZM83.8916 127.765C89.6591 138.325 95.4351 148.902 103.085 158.162L103.343 157.949C95.7171 148.717 89.9557 138.17 84.1855 127.604L83.8916 127.765ZM103.085 158.162C114.24 171.665 129.453 182.063 146.491 186.165L146.569 185.839C129.611 181.756 114.459 171.404 103.343 157.949L103.085 158.162ZM146.491 186.165C159.625 189.328 173.328 188.715 186.698 186.514L186.643 186.184C173.297 188.381 159.644 188.988 146.569 185.839L146.491 186.165ZM186.529 186.438C189.473 191.112 192.424 195.782 195.375 200.452L195.658 200.273C192.707 195.603 189.756 190.933 186.812 186.26L186.529 186.438ZM195.375 200.451L195.377 200.455L195.661 200.276L195.658 200.273L195.375 200.451ZM195.377 200.455L195.379 200.458L195.663 200.28L195.661 200.276L195.377 200.455ZM195.379 200.458L195.381 200.461L195.665 200.283L195.663 200.28L195.379 200.458ZM195.381 200.461L195.383 200.465L195.667 200.286L195.665 200.283L195.381 200.461ZM195.383 200.465L195.386 200.468L195.669 200.29L195.667 200.286L195.383 200.465ZM195.386 200.468L195.388 200.471L195.671 200.293L195.669 200.29L195.386 200.468ZM195.388 200.472C200.076 207.89 204.764 215.308 209.424 222.742L209.708 222.564C205.047 215.129 200.359 207.711 195.671 200.293L195.388 200.472ZM209.424 222.742C210.498 224.455 211.569 226.171 212.639 227.886L212.923 227.709C211.853 225.994 210.782 224.278 209.708 222.564L209.424 222.742ZM212.639 227.886L212.654 227.911L212.939 227.734L212.923 227.709L212.639 227.886ZM212.654 227.911L213.403 229.111L213.687 228.934L212.939 227.734L212.654 227.911ZM213.689 228.937C206.003 216.015 199.181 202.58 193.293 188.745L192.985 188.877C198.878 202.725 205.708 216.173 213.401 229.108L213.689 228.937ZM193.293 188.745C192.817 187.627 192.346 186.504 191.879 185.378L191.57 185.506C192.037 186.633 192.508 187.757 192.985 188.877L193.293 188.745ZM191.756 185.607C192.699 185.424 193.639 185.235 194.577 185.041L194.509 184.713C193.572 184.907 192.634 185.096 191.693 185.278L191.756 185.607ZM194.577 185.041C198.097 184.309 201.601 183.497 205.084 182.604L205 182.279C201.522 183.171 198.024 183.982 194.509 184.713L194.577 185.041ZM205.019 182.276C200.387 182.91 195.734 183.39 191.07 183.718L191.093 184.052C195.765 183.724 200.425 183.242 205.065 182.608L205.019 182.276ZM191.236 183.821C190.138 181.149 189.058 178.462 187.976 175.772L187.665 175.897C188.747 178.587 189.828 181.275 190.927 183.949L191.236 183.821ZM187.976 175.772L187.665 175.896V175.897L187.976 175.772ZM187.976 175.772V175.771L187.665 175.895V175.896L187.976 175.772ZM187.976 175.771V175.77L187.665 175.895L187.976 175.771ZM187.976 175.77H187.975L187.664 175.894L187.665 175.895L187.976 175.77ZM187.975 175.77V175.769L187.664 175.893V175.894L187.975 175.77ZM187.975 175.769V175.768L187.664 175.893L187.975 175.769ZM187.982 175.79L187.657 175.871L187.982 175.79ZM187.975 175.768C182.28 161.606 176.556 147.368 168.068 134.917L167.791 135.105C176.256 147.521 181.967 161.724 187.664 175.893L187.975 175.768ZM167.961 135.175L168.16 135.136L168.096 134.808L167.897 134.847L167.961 135.175ZM168.16 135.136C168.472 135.076 168.787 135.014 169.1 134.95L169.033 134.622C168.721 134.686 168.408 134.747 168.096 134.808L168.16 135.136ZM169.1 134.95C172.922 134.171 176.803 133.261 180.431 131.646L180.295 131.34C176.702 132.939 172.852 133.843 169.033 134.622L169.1 134.95ZM180.429 131.647L180.297 131.339V131.34L180.429 131.647ZM180.431 131.646C181.227 131.292 182.008 130.906 182.774 130.526L182.626 130.226C181.858 130.606 181.084 130.989 180.295 131.34L180.431 131.646ZM182.774 130.526L182.998 130.416L182.85 130.115L182.626 130.226L182.774 130.526ZM182.998 130.416C192.179 125.88 201.628 121.885 211.278 118.458L211.166 118.143C201.504 121.574 192.043 125.574 182.85 130.115L182.998 130.416ZM211.388 118.274L211.235 117.303L210.904 117.356L211.057 118.326L211.388 118.274ZM211.074 117.162C209.343 117.113 207.613 117.039 205.884 116.941L205.865 117.275C207.597 117.374 209.33 117.447 211.064 117.497L211.074 117.162ZM205.884 116.941C203.368 116.798 200.843 116.603 198.31 116.408L198.284 116.742C200.817 116.937 203.345 117.133 205.865 117.275L205.884 116.941ZM198.31 116.408C191.352 115.87 184.333 115.328 177.34 115.864L177.366 116.198C184.328 115.664 191.322 116.204 198.284 116.742L198.31 116.408ZM177.34 115.864C173.897 116.128 170.484 116.652 167.111 117.327L167.177 117.655C170.54 116.982 173.94 116.461 177.366 116.198L177.34 115.864ZM167.111 117.327C163.351 118.079 159.632 119.026 155.968 120.153L156.066 120.473C159.72 119.349 163.428 118.405 167.177 117.655L167.111 117.327ZM155.968 120.153L155.579 120.273L155.678 120.593L156.066 120.473L155.968 120.153ZM155.744 120.312C153.726 118.377 151.623 116.533 149.449 114.771L149.239 115.032C151.406 116.788 153.501 118.626 155.513 120.554L155.744 120.312ZM149.302 114.74C149.148 114.779 148.995 114.82 148.841 114.86L148.926 115.184C149.08 115.144 149.233 115.104 149.386 115.064L149.302 114.74ZM148.841 114.86C148.463 114.959 148.086 115.058 147.708 115.152L147.789 115.477C148.169 115.382 148.548 115.283 148.926 115.184L148.841 114.86ZM147.708 115.152C145.338 115.743 142.954 116.279 140.563 116.784L140.632 117.112C143.026 116.606 145.414 116.069 147.789 115.477L147.708 115.152ZM140.481 117.068C149.104 125.462 155.495 136.048 161.779 146.458L162.066 146.285C155.786 135.882 149.373 125.258 140.715 116.828L140.481 117.068ZM161.779 146.458L162.379 147.452L162.666 147.279L162.066 146.285L161.779 146.458ZM162.379 147.452C169.848 159.817 177.489 172.075 185.183 184.3L185.466 184.122C177.773 171.897 170.133 159.641 162.666 147.279L162.379 147.452ZM185.317 184.044C181.595 184.204 177.869 184.267 174.144 184.232L174.14 184.567C177.872 184.602 181.604 184.539 185.331 184.378L185.317 184.044ZM174.144 184.232C165.451 184.149 156.734 183.529 148.257 181.649L148.185 181.976C156.693 183.863 165.435 184.484 174.14 184.567L174.144 184.232ZM148.257 181.649C126.772 176.883 107.003 163.454 96.1449 144.323L95.8536 144.489C106.764 163.71 126.618 177.191 148.185 181.976L148.257 181.649ZM96.1449 144.323C92.2859 137.524 89.568 130.137 87.1836 122.677L86.8646 122.779C89.2512 130.246 91.9775 137.66 95.8536 144.489L96.1449 144.323ZM87.1836 122.677C86.8163 121.528 86.4556 120.374 86.0943 119.219L85.7747 119.318C86.1359 120.474 86.4969 121.629 86.8646 122.779L87.1836 122.677ZM86.0941 119.218L86.0936 119.216L85.7745 119.318L85.775 119.319L86.0941 119.218ZM86.0936 119.216L86.0931 119.214L85.7739 119.316L85.7745 119.318L86.0936 119.216ZM86.0931 119.214L86.0925 119.213L85.7734 119.315L85.7739 119.316L86.0931 119.214ZM86.0925 119.213L86.092 119.211L85.7729 119.313L85.7734 119.315L86.0925 119.213ZM86.092 119.211L86.0915 119.21L85.7724 119.311L85.7729 119.313L86.092 119.211ZM86.0915 119.21L86.091 119.208L85.7719 119.31L85.7724 119.311L86.0915 119.21ZM86.0913 119.209C83.8443 112.021 81.5781 104.77 77.6334 98.3478L77.348 98.5231C81.2671 104.903 83.5224 112.114 85.7717 119.309L86.0913 119.209ZM77.6334 98.3478C69.822 85.6308 56.1942 77.5117 42.1312 72.6205L42.0211 72.9368C56.0478 77.8154 69.5936 85.8988 77.348 98.5231L77.6334 98.3478ZM42.1312 72.6205C33.4887 69.6146 24.534 67.646 15.5788 65.7976L15.5111 66.1256C24.4659 67.9739 33.4014 69.9388 42.0211 72.9368L42.1312 72.6205ZM71.3657 66.0916C72.1155 68.1314 71.0145 70.4233 68.8911 71.2038L69.0067 71.5182C71.2935 70.6776 72.4973 68.1995 71.6801 65.9761L71.3657 66.0916ZM66.1694 63.799C68.2927 63.0187 70.616 64.0518 71.3657 66.0916L71.6801 65.9761C70.8629 63.7527 68.3407 62.6441 66.0538 63.4847L66.1694 63.799ZM63.6948 68.9112C62.945 66.8714 64.046 64.5796 66.1694 63.799L66.0538 63.4847C63.767 64.3252 62.5632 66.8035 63.3804 69.0268L63.6948 68.9112ZM68.8911 71.2038C66.7678 71.9843 64.4445 70.951 63.6948 68.9112L63.3804 69.0268C64.1976 71.2501 66.7198 72.3587 69.0067 71.5182L68.8911 71.2038ZM67.3033 67.5971C67.141 67.1842 67.1025 66.7218 67.1931 66.2872L66.8653 66.2188C66.7613 66.717 66.8054 67.2457 66.9915 67.7196L67.3033 67.5971ZM67.8515 68.343C67.6039 68.1656 67.4214 67.8966 67.3032 67.5969L66.9916 67.7198C67.1265 68.0618 67.3429 68.3906 67.6565 68.6153L67.8515 68.343ZM68.2581 68.5288C68.114 68.4967 67.9755 68.4318 67.8515 68.343L67.6565 68.6153C67.8131 68.7274 67.9925 68.8127 68.1852 68.8557L68.2581 68.5288ZM68.6928 68.5241C68.5543 68.5607 68.4028 68.5611 68.2581 68.5288L68.1852 68.8557C68.3773 68.8986 68.5834 68.8994 68.7784 68.8479L68.6928 68.5241ZM69.2038 68.1818C69.0664 68.348 68.8885 68.4736 68.6938 68.5238L68.7774 68.8481C69.054 68.7768 69.2892 68.6041 69.4619 68.3953L69.2038 68.1818ZM69.4992 67.5942C69.436 67.8124 69.3404 68.0166 69.2038 68.1818L69.4619 68.3953C69.6353 68.1856 69.7487 67.9366 69.8209 67.6874L69.4992 67.5942ZM69.2574 65.9198C69.5856 66.393 69.6628 67.029 69.4992 67.5942L69.8209 67.6874C70.009 67.0376 69.9252 66.295 69.5326 65.7289L69.2574 65.9198ZM68.4541 65.2869C68.7764 65.4123 69.0603 65.6357 69.2574 65.9198L69.5326 65.7289C69.2974 65.3898 68.9597 65.1242 68.5755 64.9748L68.4541 65.2869ZM67.283 66.0915C67.4226 65.767 67.5349 65.5145 67.7037 65.3646C67.7823 65.2948 67.873 65.2485 67.9885 65.2316C68.1067 65.2143 68.2604 65.2266 68.4647 65.2907L68.5649 64.9711C68.3283 64.8969 68.1221 64.8736 67.9401 64.9002C67.7553 64.9272 67.6052 65.0042 67.4813 65.1142C67.2451 65.324 67.1054 65.6569 66.9753 65.9591L67.283 66.0915ZM67.1818 66.3224C67.2172 66.2444 67.2507 66.1665 67.283 66.0915L66.9753 65.9591C66.9428 66.0345 66.9106 66.1095 66.8768 66.1841L67.1818 66.3224ZM66.872 66.3107L66.8721 66.3109L67.1865 66.1956L67.1864 66.1954L66.872 66.3107ZM167.307 118.307C163.856 118.998 160.438 119.854 157.066 120.865L157.162 121.186C160.525 120.178 163.932 119.324 167.373 118.636L167.307 118.307ZM177.416 116.861C174.024 117.122 170.651 117.638 167.307 118.307L167.373 118.636C170.707 117.969 174.066 117.454 177.442 117.195L177.416 116.861ZM198.164 117.4C191.231 116.865 184.326 116.331 177.416 116.861L177.442 117.195C184.322 116.667 191.2 117.198 198.138 117.734L198.164 117.4ZM198.167 117.4H198.165L198.136 117.734H198.138L198.167 117.4ZM205.827 117.939C203.266 117.794 200.714 117.597 198.165 117.4L198.139 117.734C200.687 117.931 203.244 118.128 205.808 118.274L205.827 117.939ZM208.457 118.07C207.58 118.033 206.704 117.989 205.827 117.939L205.808 118.274C206.686 118.324 207.565 118.367 208.443 118.404L208.457 118.07ZM197.282 122.801C200.989 121.247 204.733 119.777 208.508 118.394L208.393 118.08C204.613 119.464 200.865 120.936 197.152 122.493L197.282 122.801ZM197.168 122.487C197.008 122.536 196.847 122.584 196.686 122.633L196.783 122.954C196.944 122.905 197.105 122.856 197.266 122.807L197.168 122.487ZM196.686 122.633C194.61 123.262 192.522 123.894 190.516 124.746L190.647 125.055C192.634 124.21 194.704 123.583 196.783 122.954L196.686 122.633ZM190.516 124.746C188.831 125.463 187.218 126.328 185.613 127.189L185.771 127.484C187.379 126.622 188.978 125.764 190.647 125.055L190.516 124.746ZM185.613 127.189C184.463 127.806 183.317 128.42 182.146 128.981L182.29 129.283C183.47 128.719 184.623 128.1 185.771 127.484L185.613 127.189ZM182.146 128.981C177.496 131.205 172.432 132.56 167.294 132.96L167.32 133.294C172.499 132.891 177.603 131.525 182.29 129.283L182.146 128.981ZM162.055 126.602C163.871 128.738 165.568 130.951 167.17 133.224L167.444 133.031C165.837 130.75 164.133 128.53 162.311 126.385L162.055 126.602ZM156.996 121.144C158.753 122.89 160.444 124.706 162.055 126.602L162.311 126.385C160.693 124.482 158.995 122.659 157.232 120.906L156.996 121.144Z" fill="#293E6B"/>
</g>
</g>
</g>
</g>
<defs>
<clipPath id="clip0_101_75">
<rect width="1035" height="230" fill="white"/>
</clipPath>
</defs>
</svg>
